# xmcd
#
# Track frame offsets: 
#        225
#        5745
#        22756
#        37367
#        41102
#        52308
#        70759
#        80484
#        83824
#        105137
#        109746
#        123234
#        133758
#        138910
#        153507
#        174125
#        185245
#        197215
#        206238
#        217826
#        228720
#        240719
#        246766
#        262691
#        271340
#        279954
#        288264
#        301703
#        312556
#        320743
#        329517
#        338738
#
# Disc length: 4560 seconds
#
# Revision: 0
# Processed by: cddbd v1.5.2PL0 Copyright (c) Steve Scherf et al.
# Submitted via: ExactAudioCopy v0.95b4
#
DISCID=d611cd20
DTITLE=Hank Williams And The Drifting Cowboys - More Rare Radio Progra
DTITLE=mmes And Four Complete Show
DYEAR=1952
DGENRE=Country
TTITLE0=Happy Roving Cowboy
TTITLE1=Wedding Bells
TTITLE2=Lovesick Blues
TTITLE3=Joe Clark
TTITLE4=Where The Soul Man Never Dies
TTITLE5=Happy Roving Cowboy/You're Gonna Change
TTITLE6=There's A Bluebird On Your Windowsill
TTITLE7=Fire On The Mountain
TTITLE8=Tramp On The Street
TTITLE9=Happy Roving Cowboy
TTITLE10=I'm A Long Gone Daddy
TTITLE11=I'm Telling You
TTITLE12=Bill Cheatham
TTITLE13=When God Comes And Gathers His Jewels
TTITLE14=Happy Roving Cowboy/Lost Hihgway
TTITLE15=I Wanna Live And Love Always
TTITLE16=I'll Have A New Body
TTITLE17=California Zephyr
TTITLE18=Your Cheatin Heart
TTITLE19=You Better Keep It On Your Mind
TTITLE20=How Can U Refuse Him Now
TTITLE21=Ten Little Numbers
TTITLE22=Thy Burdens Are Greather Than Mine
TTITLE23=I'm Going Home
TTITLE24=Jambalaya
TTITLE25=Ready To Go Home
TTITLE26=Kaw-Liga
TTITLE27=Angel Of Death
TTITLE28=All The Love I Ever Had
TTITLE29=Tennesse Border
TTITLE30=Alone And Forsaken
TTITLE31=If You'll Be A Baby To Me
EXTD=
EXTT0=
EXTT1=
EXTT2=
EXTT3=
EXTT4=
EXTT5=
EXTT6=
EXTT7=
EXTT8=
EXTT9=
EXTT10=
EXTT11=
EXTT12=
EXTT13=
EXTT14=
EXTT15=
EXTT16=
EXTT17=
EXTT18=
EXTT19=
EXTT20=
EXTT21=
EXTT22=
EXTT23=
EXTT24=
EXTT25=
EXTT26=
EXTT27=
EXTT28=
EXTT29=
EXTT30=
EXTT31=
PLAYORDER=
